<?xml version="1.0" encoding="UTF-8"?>
<svg width="40px" height="40px" viewBox="0 0 40 40" version="1.1" xmlns="http://www.w3.org/2000/svg" xmlns:xlink="http://www.w3.org/1999/xlink">
    <title>Group 10</title>
    <defs>
        <polygon id="path-1" points="0 0 40 0 40 40 0 40"></polygon>
    </defs>
    <g id="HelpPages---Approved-" stroke="none" stroke-width="1" fill="none" fill-rule="evenodd">
        <g id="Desktop-HD-HelpLanding" transform="translate(-439.000000, -1773.000000)">
            <g id="Group-10" transform="translate(439.000000, 1773.000000)">
                <path d="M26.9840914,17.7777778 C26.4580821,17.7777778 26.031746,18.2041139 26.031746,18.7301231 C26.031746,19.2561324 26.4580821,19.6825397 26.9840914,19.6825397 C27.5101006,19.6825397 27.9365079,19.2561324 27.9365079,18.7301231 C27.9365079,18.2041139 27.5101006,17.7777778 26.9840914,17.7777778" id="Fill-1" fill="#000000"></path>
                <path d="M19.365115,17.7777778 C18.8391057,17.7777778 18.4126984,18.2041139 18.4126984,18.7301231 C18.4126984,19.2561324 18.8391057,19.6825397 19.365115,19.6825397 C19.891053,19.6825397 20.3174603,19.2561324 20.3174603,18.7301231 C20.3174603,18.2041139 19.891053,17.7777778 19.365115,17.7777778" id="Fill-3" fill="#000000"></path>
                <path d="M23.1745676,17.7777778 C22.6486296,17.7777778 22.2222222,18.2041139 22.2222222,18.7301231 C22.2222222,19.2561324 22.6486296,19.6825397 23.1745676,19.6825397 C23.7005768,19.6825397 24.1269841,19.2561324 24.1269841,18.7301231 C24.1269841,18.2041139 23.7005768,17.7777778 23.1745676,17.7777778" id="Fill-5" fill="#000000"></path>
                <g id="Group-9">
                    <mask id="mask-2" fill="white">
                        <use xlink:href="#path-1"></use>
                    </mask>
                    <g id="Clip-8"></g>
                    <path d="M30.0653721,23.6296357 L29.6535017,27.3633204 L27.2525892,25.6000243 C25.9997149,26.1567468 24.5639562,26.4729746 23.0379788,26.4729746 C18.1547983,26.4729746 14.19616,23.2350289 14.19616,19.2408746 C14.19616,15.2467202 18.1547983,12.0088406 23.0379788,12.0088406 C27.9210931,12.0088406 31.8797315,15.2467202 31.8797315,19.2408746 C31.8797315,20.8914636 31.2032243,22.4124793 30.0653721,23.6296357 M15.6471977,27.3565077 C14.325998,27.3565077 13.0846325,27.0777827 12.0053827,26.5887242 L9.79635005,27.9912123 L9.66783486,24.9392596 C8.69738971,23.9026063 8.12036113,22.6064756 8.12036113,21.2000189 C8.12036113,18.0743172 10.9681335,15.4929031 14.6573066,15.0964442 C14.4482958,15.3912419 14.2609136,15.6975483 14.0966814,16.015099 C13.5693921,17.0348859 13.3019773,18.1202202 13.3019773,19.2408746 C13.3019773,20.3615951 13.5693921,21.4468632 14.0966814,22.4667162 C14.5984396,23.4368961 15.3127142,24.3050842 16.2197286,25.0469398 C17.0650979,25.7384608 18.0371305,26.2859894 19.0915107,26.675371 C18.0593544,27.1105895 16.8883647,27.3565077 15.6471977,27.3565077 M19.9999802,-1.32285237e-05 C8.95428781,-1.32285237e-05 -3.96855975e-05,8.95430835 -3.96855975e-05,19.9999868 C-3.96855975e-05,31.0456784 8.95428781,40 19.9999802,40 C31.0456725,40 40,31.0456784 40,19.9999868 C40,8.95430835 31.0456725,-1.32285237e-05 19.9999802,-1.32285237e-05" id="Fill-7" fill="#000000" mask="url(#mask-2)"></path>
                </g>
            </g>
        </g>
    </g>
</svg>