<svg width="12" height="18" xmlns="http://www.w3.org/2000/svg"><path d="M6.024.138c1.664 0 3.215.72 4.32 1.964a6.405 6.405 0 011.581 4.238c0 .443-.045.882-.132 1.312l-.171-.03.162.048a10.377 10.377 0 01-1.388 2.959l-.229.318-4.163 6.582-4.16-6.568A10.349 10.349 0 01.219 7.69a6.304 6.304 0 01-.143-1.343c0-1.591.573-3.092 1.592-4.248A5.757 5.757 0 015.983.138zm0 1.35h-.04a4.407 4.407 0 00-3.306 1.505 5.055 5.055 0 00-1.253 3.354c0 .358.036.702.1 1.007a9.09 9.09 0 001.43 2.841l3.047 4.81 3.054-4.823a8.943 8.943 0 001.321-2.536l.104-.332.035-.19c.026-.172.043-.346.052-.52l.007-.264c0-1.259-.45-2.44-1.244-3.344-.85-.957-2.035-1.508-3.307-1.508zM6 3.813a2 2 0 110 4 2 2 0 010-4z" fill="#000" fill-rule="nonzero"></path></svg>