<?xml version="1.0" ?><svg viewBox="0 0 32 32" xmlns="http://www.w3.org/2000/svg"><title/><g data-name="Your Order" id="Your_Order"><path d="M29.79,1.5H2.21a.5.5,0,0,0-.5.5V30a.5.5,0,0,0,.5.5H29.79a.5.5,0,0,0,.5-.5V2A.5.5,0,0,0,29.79,1.5Zm-.5,4H18.5v-3H29.29ZM14.5,6.5h3v8.29l-1.15-1.14a.48.48,0,0,0-.7,0L14.5,14.79Zm3-4v3h-3v-3ZM2.71,2.5H13.5v3H2.71Zm13.79,27v-7h3v7Zm8,0v-7h3v7Zm4.79,0H28.5V22a.5.5,0,0,0-.5-.5H24a.5.5,0,0,0-.5.5v7.5h-3V22a.5.5,0,0,0-.5-.5H16a.5.5,0,0,0-.5.5v7.5H2.71V6.5H13.5V16a.5.5,0,0,0,.31.46.47.47,0,0,0,.54-.11L16,14.71l1.65,1.64a.47.47,0,0,0,.35.15.43.43,0,0,0,.19,0A.5.5,0,0,0,18.5,16V6.5H29.29Z"/></g></svg>