<?xml version="1.0" encoding="UTF-8"?>
<svg width="40px" height="40px" viewBox="0 0 40 40" version="1.1" xmlns="http://www.w3.org/2000/svg" xmlns:xlink="http://www.w3.org/1999/xlink">
    <title>Fill 1</title>
    <g id="HelpPages---Opt1" stroke="none" stroke-width="1" fill="none" fill-rule="evenodd">
        <g id="Desktop-HD-Help-Topic_NOOK" transform="translate(-823.000000, -2036.000000)" fill="#000000">
            <g id="Group-29" transform="translate(439.000000, 2036.000000)">
                <g id="Group-3" transform="translate(384.000000, 0.000000)">
                    <path d="M27.5071186,27.670094 C26.6446191,28.4138013 25.7173661,28.785655 24.726087,28.785655 C23.4972898,28.785655 22.1172245,28.3704118 20.586751,27.540719 C19.0557483,26.7109602 17.6383786,25.6705371 16.3340466,24.4199129 C15.0295161,23.1699501 13.9029754,21.7631632 12.9545567,20.1997506 C12.0056089,18.6368011 11.4560962,17.1872861 11.3054234,15.8500812 C11.1759823,14.8588021 11.1649365,14.1846767 11.2729473,13.8288957 C11.3806275,13.4733131 11.7469913,13.0043621 12.372568,12.4223073 C13.2347368,11.5385099 14.0431977,11.1398023 14.798017,11.2257215 C15.272061,11.2904751 15.6225507,11.4682664 15.8489568,11.7592939 C16.075429,12.0503213 16.3501854,12.6809909 16.6735565,13.6511044 L17.449806,15.9472447 L16.414939,17.0143232 L15.3477943,18.1138116 L16.5765915,20.0541708 C17.1368854,20.9384312 17.9617497,21.8439895 19.0506553,22.7707795 C20.1389656,23.6979664 20.9205727,24.1612953 21.3952781,24.1612953 C21.6750613,24.1612953 22.1172245,23.8918965 22.7210403,23.3528344 C23.1303307,22.9646435 23.4859133,22.7600644 23.7881188,22.7383697 C24.089729,22.7170717 24.7364714,22.8353347 25.728478,23.0941507 C27.1297089,23.4609775 27.9922084,23.7520049 28.3155796,23.967233 C28.6389507,24.1830563 28.8006694,24.6139753 28.8006694,25.2607837 C28.8006694,26.1234155 28.3692873,26.9261882 27.5071186,27.670094 M20,0 C8.95431862,0 0,8.95431862 0,20 C0,31.0456814 8.95431862,40 20,40 C31.0456814,40 40,31.0456814 40,20 C40,8.95431862 31.0456814,0 20,0" id="Fill-1"></path>
                </g>
            </g>
        </g>
    </g>
</svg>