<svg xmlns="http://www.w3.org/2000/svg" xmlns:xlink="http://www.w3.org/1999/xlink" width="61" height="52" viewBox="0 0 61 52">
    <defs>
        <linearGradient id="xtlp6vowvb" x1="50%" x2="50%" y1="0%" y2="100%">
            <stop offset="0%" stop-color="#FFF" stop-opacity=".5"/>
            <stop offset="100%" stop-opacity=".5"/>
        </linearGradient>
        <path id="87iqgkunea" d="M50.297 1.857H9.137c-3.509 0-6.351 2.887-6.351 6.443v40.913c0 .776.624 1.292 1.277 1.292.305 0 .614-.113.87-.363 3.007-2.942 8.208-8.04 9.164-9.01 1.359-1.378 2.13-1.89 3.362-1.89h32.83c3.51 0 6.354-2.885 6.354-6.445v-24.5c0-3.556-2.84-6.44-6.346-6.44z"/>
    </defs>
    <g fill="none" fill-rule="evenodd">
        <g>
            <g>
                <g transform="translate(-685.000000, -1766.000000) translate(685.857143, 1766.000000)">
                    <use fill="#CCB36C" xlink:href="#87iqgkunea"/>
                    <use fill="url(#xtlp6vowvb)" style="mix-blend-mode:overlay" xlink:href="#87iqgkunea"/>
                </g>
                <g fill="#FFF">
                    <path d="M6.746 20.178c-.21-.206-.454-.372-.734-.494-.283-.124-.585-.184-.913-.184-.326 0-.633.06-.92.184-.285.122-.531.288-.735.494-.204.206-.365.452-.483.74-.117.288-.175.592-.175.91 0 .329.058.635.175.919.118.283.28.527.483.732.204.206.45.369.736.485.286.12.593.179.92.179.327 0 .63-.059.912-.179.28-.116.524-.279.734-.485.21-.205.375-.45.499-.732.123-.284.184-.59.184-.919 0-.318-.061-.622-.184-.91-.124-.288-.289-.534-.499-.74M10.397 1.533C9.865 1.041 9.224.662 8.478.397 7.731.133 6.905 0 5.996 0c-.668 0-1.288.063-1.863.19-.574.127-1.106.3-1.596.522-.491.221-.948.482-1.37.78-.424.3-.811.613-1.167.946l1.017 1.707c.167.331.44.497.816.497.156 0 .332-.069.53-.207.198-.137.442-.294.73-.464.286-.17.636-.327 1.047-.465.413-.138.917-.208 1.513-.208.405 0 .784.062 1.134.184.35.12.65.295.9.522.25.227.448.498.588.813.141.315.212.671.212 1.069 0 .62-.123 1.153-.368 1.6-.246.448-.551.85-.917 1.211-.365.36-.756.69-1.174.995-.418.304-.796.618-1.136.945-.339.326-.61.685-.814 1.079-.203.39-.273.848-.21 1.366l.265 2.704h2.645l.362-2.421c.051-.354.211-.672.478-.952.266-.283.581-.572.945-.864.367-.293.755-.606 1.168-.937.412-.333.79-.722 1.135-1.176.344-.455.632-.988.862-1.602.228-.613.343-1.34.343-2.18 0-.863-.145-1.642-.437-2.338-.294-.695-.704-1.29-1.237-1.783" transform="translate(-685.000000, -1766.000000) translate(685.857143, 1766.000000) translate(25.071429, 8.357143)"/>
                </g>
            </g>
        </g>
    </g>
</svg>
