<svg xmlns="http://www.w3.org/2000/svg" xmlns:xlink="http://www.w3.org/1999/xlink" viewBox="0 0 32 32">
						<use class="social-icons__icon" xlink:href="#twitter">
							<path id="twitter" d="M23.9 10.6c-.6.4-1.3.6-2 .8-.6-.6-1.4-1-2.3-1-2.1 0-3.6 1.9-3.1 4-2.7-.1-5-1.4-6.6-3.4-.8 1.5-.4 3.4 1 4.3-.5 0-1-.2-1.4-.4 0 1.5 1 2.9 2.6 3.2-.4.1-.9.2-1.4.1.4 1.3 1.6 2.2 3 2.2-1.3 1.1-3 1.5-4.7 1.3 1.4.9 3.1 1.5 4.9 1.5 5.9 0 9.3-5.1 9.1-9.6.6-.5 1.2-1 1.6-1.7-.6.3-1.2.4-1.8.5.4-.4.9-1 1.1-1.8z"></path>
						</use>
					</svg>