<?xml version="1.0" encoding="utf-8"?>
<!-- Generator: Adobe Illustrator 26.0.3, SVG Export Plug-In . SVG Version: 6.00 Build 0)  -->
<svg version="1.1" id="Layer_1" xmlns="http://www.w3.org/2000/svg" xmlns:xlink="http://www.w3.org/1999/xlink" x="0px" y="0px"
	 viewBox="0 0 32 32" style="enable-background:new 0 0 32 32;" xml:space="preserve">
<style type="text/css">
	.st0{fill:#008CFF;}
</style>
<desc></desc>
<g>
	<path class="st0" d="M9.6,27.8c-2.1-1.1-3.8-2.7-5-4.7c-1.2-2-1.8-4.3-1.8-6.8c0-2.5,0.6-4.8,1.8-6.8c1.2-2,2.9-3.6,5-4.7
		c2.1-1.1,4.5-1.7,7.2-1.7c2.4,0,4.6,0.4,6.6,1.3c1.9,0.9,3.5,2.1,4.8,3.7l-5.4,4.8c-1.6-2-3.4-3-5.5-3c-1.8,0-3.2,0.6-4.3,1.7
		c-1.1,1.1-1.6,2.7-1.6,4.6s0.5,3.5,1.6,4.6c1.1,1.1,2.5,1.7,4.3,1.7c2.1,0,3.9-1,5.5-3l5.4,4.8c-1.2,1.6-2.8,2.9-4.8,3.7
		s-4.1,1.3-6.6,1.3C14.1,29.5,11.7,28.9,9.6,27.8z"/>
</g>
</svg>
